<svg id="visual" viewBox="0 0 900 600" width="900" height="600" xmlns="http://www.w3.org/2000/svg" xmlns:xlink="http://www.w3.org/1999/xlink" version="1.1"><rect x="0" y="0" width="900" height="600" fill="#001220"></rect><defs><linearGradient id="grad1_0" x1="33.3%" y1="0%" x2="100%" y2="100%"><stop offset="20%" stop-color="#001220" stop-opacity="1"></stop><stop offset="80%" stop-color="#001220" stop-opacity="1"></stop></linearGradient></defs><defs><linearGradient id="grad2_0" x1="0%" y1="0%" x2="66.7%" y2="100%"><stop offset="20%" stop-color="#001220" stop-opacity="1"></stop><stop offset="80%" stop-color="#001220" stop-opacity="1"></stop></linearGradient></defs><g transform="translate(900, 0)"><path d="M0 486.7C-63.7 479.8 -127.4 472.8 -186.3 449.7C-245.2 426.6 -299.3 387.3 -339.4 339.4C-379.5 291.6 -405.5 235.2 -427.8 177.2C-450 119.2 -468.4 59.6 -486.7 0L0 0Z" fill="#FBAE3C"></path></g><g transform="translate(0, 600)"><path d="M0 -486.7C71.5 -488 143.1 -489.3 186.3 -449.7C229.5 -410.1 244.3 -329.7 280 -280C315.7 -230.3 372.3 -211.5 410.2 -169.9C448.1 -128.4 467.4 -64.2 486.7 0L0 0Z" fill="#FBAE3C"></path></g></svg>