<svg id="visual" viewBox="0 0 900 600" width="900" height="600" xmlns="http://www.w3.org/2000/svg" xmlns:xlink="http://www.w3.org/1999/xlink" version="1.1"><path d="M0 55L82 61L164 55L245 85L327 103L409 37L491 73L573 91L655 61L736 73L818 61L900 103L900 0L818 0L736 0L655 0L573 0L491 0L409 0L327 0L245 0L164 0L82 0L0 0Z" fill="#00cc8e"></path><path d="M0 181L82 181L164 109L245 157L327 163L409 169L491 157L573 205L655 139L736 187L818 187L900 169L900 101L818 59L736 71L655 59L573 89L491 71L409 35L327 101L245 83L164 53L82 59L0 53Z" fill="#00b98a"></path><path d="M0 355L82 433L164 313L245 325L327 439L409 271L491 247L573 433L655 301L736 271L818 385L900 367L900 167L818 185L736 185L655 137L573 203L491 155L409 167L327 161L245 155L164 107L82 179L0 179Z" fill="#00a784"></path><path d="M0 505L82 553L164 535L245 523L327 547L409 493L491 493L573 517L655 487L736 493L818 529L900 535L900 365L818 383L736 269L655 299L573 431L491 245L409 269L327 437L245 323L164 311L82 431L0 353Z" fill="#00957c"></path><path d="M0 601L82 601L164 601L245 601L327 601L409 601L491 601L573 601L655 601L736 601L818 601L900 601L900 533L818 527L736 491L655 485L573 515L491 491L409 491L327 545L245 521L164 533L82 551L0 503Z" fill="#038373"></path></svg>