<svg id="visual" viewBox="0 0 900 600" width="900" height="600" xmlns="http://www.w3.org/2000/svg" xmlns:xlink="http://www.w3.org/1999/xlink" version="1.1"><rect x="0" y="0" width="900" height="600" fill="#001220"></rect><defs><linearGradient id="grad1_0" x1="33.3%" y1="0%" x2="100%" y2="100%"><stop offset="20%" stop-color="#001220" stop-opacity="1"></stop><stop offset="80%" stop-color="#001220" stop-opacity="1"></stop></linearGradient></defs><defs><linearGradient id="grad2_0" x1="0%" y1="0%" x2="66.7%" y2="100%"><stop offset="20%" stop-color="#001220" stop-opacity="1"></stop><stop offset="80%" stop-color="#001220" stop-opacity="1"></stop></linearGradient></defs><g transform="translate(900, 0)"><path d="M0 459.7C-22 452.8 -44 445.9 -61.6 428.6C-79.2 411.3 -92.4 383.5 -109 371.3C-125.7 359.2 -145.8 362.6 -164.1 359.3C-182.3 356 -198.7 346.1 -219 340.7C-239.3 335.4 -263.5 334.6 -283.6 327.2C-303.6 319.8 -319.5 305.7 -337.8 292.7C-356.2 279.7 -377.1 267.8 -386.7 248.5C-396.4 229.3 -394.8 202.8 -389.3 177.8C-383.8 152.8 -374.4 129.5 -375.2 110.2C-376 90.8 -387.1 75.6 -402.9 57.9C-418.7 40.2 -439.2 20.1 -459.7 0L0 0Z" fill="#fd9f13"></path></g><g transform="translate(0, 600)"><path d="M0 -459.7C15.9 -416.6 31.8 -373.5 54.1 -376.1C76.3 -378.7 104.9 -427 129 -439.4C153.1 -451.9 172.8 -428.6 182.8 -400.2C192.8 -371.9 193.1 -338.4 214.1 -333.1C235 -327.8 276.6 -350.7 301 -347.4C325.5 -344.2 332.9 -314.9 326.5 -282.9C320 -250.9 299.7 -216.2 312.1 -200.6C324.5 -184.9 369.7 -188.3 382 -174.5C394.4 -160.7 373.8 -129.8 365.6 -107.3C357.3 -84.9 361.4 -71 379.1 -54.5C396.8 -38 428.3 -19 459.7 0L0 0Z" fill="#fd9f13"></path></g></svg>